<svg xmlns="http://www.w3.org/2000/svg" viewBox="0 0 533.5 544.3" className="h-5 w-5 mr-2">
            <path
              fill="#4285F4"
              d="M533.5 278.4c0-17.4-1.4-34.2-4.1-50.4H272v95.4h146.9c-6.3 34-25 62.8-53.6 82.1l86.6 67c50.7-46.7 81.6-115.5 81.6-194.1z"
            />
            <path
              fill="#34A853"
              d="M272 544.3c72.9 0 134-24.1 178.6-65.3l-86.6-67c-24 16.1-54.8 25.5-92 25.5-70.7 0-130.6-47.7-152-111.7l-89.3 68.9c43.8 86.4 133.2 149.6 241.3 149.6z"
            />
            <path
              fill="#FBBC05"
              d="M120 325.8c-10.4-30.6-10.4-63.5 0-94.1l-89.3-68.9c-39.1 77.9-39.1 168.9 0 246.8l89.3-68.8z"
            />
            <path
              fill="#EA4335"
              d="M272 107.7c39.7-.6 77.7 13.7 106.8 39.4l80-80C414.2 23.5 345.2-1.1 272 0 163.9 0 74.5 63.2 30.7 149.6l89.3 68.9C141.4 155.4 201.3 107.7 272 107.7z"
            />
          </svg>